HIERARCHY
ROOT Hips
{
	OFFSET -3.958830 18.904000 13.208200
	CHANNELS 6 Xposition Yposition Zposition Zrotation Yrotation Xrotation 
	JOINT LHipJoint
	{
		OFFSET 0.000000 0.000000 0.000000
		CHANNELS 3 Zrotation Yrotation Xrotation
		JOINT LeftUpLeg
		{
			OFFSET 1.800000 -1.400000 0.085000
			CHANNELS 3 Zrotation Yrotation Xrotation
			JOINT LeftLeg
			{
				OFFSET 2.215000 -6.000000 0.000000
				CHANNELS 3 Zrotation Yrotation Xrotation
				JOINT LeftFoot
				{
					OFFSET 2.500000 -6.900000 0.000000
					CHANNELS 3 Zrotation Yrotation Xrotation
					JOINT LeftToeBase
					{
						OFFSET 0.200000 -0.500000 1.950000
						CHANNELS 3 Zrotation Yrotation Xrotation
						End Site
						{
							OFFSET 0.000000 0.000000 0.000000
						}
					}
				}
			}
		}
	}
	JOINT RHipJoint
	{
		OFFSET 0.000000 0.000000 0.000000
		CHANNELS 3 Zrotation Yrotation Xrotation
		JOINT RightUpLeg
		{
			OFFSET -1.800000 -1.400000 0.085000
			CHANNELS 3 Zrotation Yrotation Xrotation
			JOINT RightLeg
			{
				OFFSET -2.215000 -6.000000 0.000000
				CHANNELS 3 Zrotation Yrotation Xrotation
				JOINT RightFoot
				{
					OFFSET -2.500000 -6.900000 0.000000
					CHANNELS 3 Zrotation Yrotation Xrotation
					JOINT RightToeBase
					{
						OFFSET -0.200000 -0.500000 1.950000
						CHANNELS 3 Zrotation Yrotation Xrotation
						End Site
						{
							OFFSET 0.000000 0.000000 0.000000
						}
					}
				}
			}
		}
	}
	JOINT LowerBack
	{
		OFFSET 0.000000 0.000000 0.000000
		CHANNELS 3 Zrotation Yrotation Xrotation
		JOINT Spine
		{
			OFFSET -0.087000 1.940000 -0.288900
			CHANNELS 3 Zrotation Yrotation Xrotation
			JOINT Spine1
			{
				OFFSET 0.000000 1.950000 0.060000
				CHANNELS 3 Zrotation Yrotation Xrotation
				JOINT Neck
				{
					OFFSET 0.000000 0.000000 0.000000
					CHANNELS 3 Zrotation Yrotation Xrotation
					JOINT Neck1
					{
						OFFSET 0.000000 1.600000 0.340000
						CHANNELS 3 Zrotation Yrotation Xrotation
						JOINT Head
						{
							OFFSET 0.000000 1.667000 -0.240000
							CHANNELS 3 Zrotation Yrotation Xrotation
							End Site
							{
								OFFSET 0.000000 0.000000 0.000000
							}
						}
					}
				}
				JOINT LeftShoulder
				{
					OFFSET 0.000000 0.000000 0.000000
					CHANNELS 3 Zrotation Yrotation Xrotation
					JOINT LeftArm
					{
						OFFSET 2.700000 1.550000 -0.730000
						CHANNELS 3 Zrotation Yrotation Xrotation
						JOINT LeftForeArm
						{
							OFFSET 5.450000 0.000000 0.000000
							CHANNELS 3 Zrotation Yrotation Xrotation
							JOINT LeftHand
							{
								OFFSET 3.450000 0.000000 0.000000
								CHANNELS 3 Zrotation Yrotation Xrotation
								JOINT LeftHandIndex1
								{
									OFFSET 0.750000 0.000000 0.000000
									CHANNELS 3 Zrotation Yrotation Xrotation
									End Site
									{
										OFFSET 0.000000 0.000000 0.000000
									}
								}
							}
						}
					}
				}
				JOINT RightShoulder
				{
					OFFSET 0.000000 0.000000 0.000000
					CHANNELS 3 Zrotation Yrotation Xrotation
					JOINT RightArm
					{
						OFFSET -2.700000 1.550000 -0.730000
						CHANNELS 3 Zrotation Yrotation Xrotation
						JOINT RightForeArm
						{
							OFFSET -5.450000 0.000000 0.000000
							CHANNELS 3 Zrotation Yrotation Xrotation
							JOINT RightHand
							{
								OFFSET -3.450000 0.000000 0.000000
								CHANNELS 3 Zrotation Yrotation Xrotation
								JOINT RightHandIndex1
								{
									OFFSET -0.750000 0.000000 0.000000
									CHANNELS 3 Zrotation Yrotation Xrotation
									End Site
									{
										OFFSET 0.000000 0.000000 0.000000
									}
								}
							}
						}
					}
				}
			}
		}
	}
}
MOTION
Frames: 14
Frame Time: 0.016667
-0.388880 17.631010 -1.763870 -4.619183 23.204854 0.817622 -14.648814 12.278809 2.690615 10.927874 -1.707205 -17.675771 -7.611758 5.233625 9.326676 -1.182488 4.521918 3.028464 -0.489700 -0.877270 -0.672930 18.808404 -11.741634 2.593243 -2.770090 1.186902 -12.770600 4.463604 -5.307032 15.933044 0.317233 -4.138743 2.975660 -0.061960 1.185840 0.205130 -5.698431 1.351415 -7.001078 20.006454 1.280012 3.318706 -21.327589 2.824725 15.047340 7.877644 -0.981676 -10.359397 -0.833691 10.938932 55.261205 5.417240 1.927150 12.751720 -12.645206 -18.341989 4.331957 -43.616844 -26.451119 6.484933 13.156696 -13.259173 -3.439014 -4.733503 2.819221 0.229360 0.708100 -0.794060 0.011370 -3.214483 18.935109 6.099491 78.345646 54.559620 33.797384 23.493834 31.291949 5.321331 2.001510 -1.610088 -0.755110 0.428490 0.883400 -0.080570 
-0.389270 17.632220 -1.768390 -4.616415 23.465383 0.881570 -14.656106 12.259707 2.692388 10.837582 -1.728722 -17.864014 -7.555022 5.214405 9.360784 -1.198927 4.509476 3.043554 -0.490110 -0.874730 -0.675900 18.801398 -11.756363 2.601481 -2.705130 1.194400 -12.822257 4.407152 -5.270388 15.874286 0.323395 -4.129681 2.987882 -0.051410 1.200940 0.191010 -5.685905 1.408533 -7.012265 19.666203 1.406970 3.417777 -20.725187 2.892898 15.159795 7.818880 -0.729351 -10.234654 -0.142753 10.452022 54.977291 5.520560 1.721490 12.532910 -12.082475 -18.362185 4.287694 -44.547264 -27.010123 6.959660 12.625103 -13.414780 -3.400262 -4.738110 2.797969 0.228940 0.713910 -0.804750 0.016700 -3.547727 18.864750 6.118046 79.093886 54.540112 33.960608 21.901758 29.913195 4.668030 1.988810 -1.613546 -0.771120 0.453330 0.884310 -0.081290 
-0.391370 17.636190 -1.774310 -4.657675 23.996626 1.003869 -14.667899 12.219265 2.683742 10.683639 -1.767528 -18.302374 -7.332263 5.179347 9.579314 -1.222941 4.470281 3.068141 -0.487860 -0.863980 -0.679990 18.791467 -11.785203 2.622776 -2.629286 1.199908 -12.894900 4.543381 -5.254450 15.703866 0.332387 -4.121379 2.999249 -0.032250 1.220300 0.165400 -5.670407 1.531023 -7.027981 19.066980 1.748938 3.575377 -19.416319 3.085128 15.320846 7.546926 -0.288885 -9.990430 0.987287 9.441293 54.484158 5.906670 1.083560 12.070680 -10.655676 -18.282314 4.199119 -46.898090 -28.347944 8.119473 11.592289 -13.860925 -3.344620 -4.736275 2.772008 0.223850 0.715610 -0.820310 0.021980 -4.213499 18.636877 6.127813 80.332952 54.038127 33.869771 19.028150 27.509945 3.574597 1.972251 -1.619713 -0.791250 0.490960 0.884390 -0.077360 
-0.397690 17.642570 -1.783380 -4.719460 24.733845 1.126051 -14.688755 12.174236 2.673086 10.494150 -1.820130 -18.958841 -6.945039 5.148224 10.050063 -1.278724 4.462784 3.091296 -0.511660 -0.899540 -0.695910 18.769996 -11.834804 2.653160 -2.492361 1.242458 -13.042881 4.576301 -5.228744 15.617549 0.355423 -4.116375 3.013239 -0.023280 1.269870 0.142960 -5.633922 1.704712 -7.054001 18.064486 2.331152 3.950006 -17.269302 3.461631 15.482302 7.185628 0.439263 -9.685392 2.769245 7.876387 53.579016 6.202490 0.210760 11.612610 -9.096829 -18.303145 4.071025 -49.733485 -30.166871 9.711915 9.716928 -14.855544 -3.229143 -4.754117 2.720747 0.232920 0.733530 -0.852300 0.023800 -4.714920 18.438763 6.102407 80.513751 53.030752 33.040203 15.459338 24.835842 2.485249 1.937495 -1.573227 -0.841920 0.549640 0.909240 -0.081360 
-0.400130 17.644920 -1.793880 -4.885853 25.706550 1.472769 -14.717936 12.106963 2.675731 10.252160 -1.910261 -19.937754 -6.487324 5.092334 10.466134 -1.355090 4.463954 3.123262 -0.588580 -0.997810 -0.749990 18.742409 -11.877448 2.692205 -2.298457 1.348061 -13.454490 4.795891 -5.247631 15.516462 0.415794 -4.120610 3.041912 -0.036980 1.357290 0.109160 -5.578797 1.909240 -7.081613 16.967561 3.051189 4.247695 -14.537510 3.890715 15.378938 6.792471 1.317736 -9.345539 4.785911 5.946340 51.774174 6.044370 -0.793310 11.712790 -7.595165 -18.056839 3.912232 -53.211565 -31.949071 11.421430 7.200475 -17.050945 -3.061593 -4.793404 2.656488 0.232360 0.782180 -0.924170 0.011370 -5.042845 17.995487 5.949992 79.992440 51.252962 31.644492 12.007563 22.009744 1.600818 1.893384 -1.496828 -0.924360 0.620230 0.968610 -0.089670 
-0.394530 17.642660 -1.801870 -5.231967 26.571410 2.044261 -14.743965 12.020574 2.693438 10.055507 -2.026548 -21.126219 -6.013295 4.989595 10.665736 -1.434406 4.454262 3.159447 -0.669510 -1.102500 -0.812830 18.723657 -11.894256 2.734039 -2.014032 1.493457 -14.028913 5.082110 -5.241967 15.191578 0.477189 -4.099273 3.078241 -0.055600 1.449990 0.080950 -5.527362 2.100120 -7.101168 16.115425 3.804628 4.338934 -11.695774 4.325614 15.019505 6.298337 2.236963 -9.090585 6.640599 4.132208 49.402756 5.914040 -1.808140 11.781340 -6.557078 -17.800388 3.837354 -56.802545 -33.334608 12.927597 4.664431 -19.660069 -2.863144 -4.825908 2.617987 0.236150 0.830930 -0.994940 0.003660 -4.785852 17.470903 5.655984 78.601847 48.736685 29.624495 8.886945 19.366591 0.934649 1.855418 -1.405734 -1.007460 0.690620 1.033370 -0.095010 
-0.386740 17.639460 -1.809000 -5.301789 27.393979 2.865223 -14.782520 11.944230 2.724530 9.516526 -2.201377 -22.336751 -5.391333 4.806625 10.736273 -1.506124 4.383646 3.201985 -0.729010 -1.180990 -0.846460 18.691142 -11.901430 2.768541 -1.974012 1.638018 -14.717812 5.391668 -5.220016 14.735353 0.534522 -4.059254 3.110189 -0.069540 1.503200 0.066380 -5.425332 2.249996 -7.104011 14.850529 4.558920 4.382188 -8.834435 4.781994 14.573659 5.803777 3.208113 -8.982813 8.391855 2.225926 46.815510 5.298810 -2.644560 11.609530 -5.739498 -17.506649 3.828320 -59.882791 -34.182906 13.913463 1.656681 -23.023233 -2.494921 -4.844387 2.615633 0.235380 0.870710 -1.044790 -0.015720 -4.343140 16.923650 5.370671 77.045832 45.891638 27.156240 5.753770 17.131533 0.311577 1.827970 -1.336811 -1.062950 0.728440 1.081470 -0.107800 
-0.379110 17.645080 -1.812530 -5.193528 28.201034 3.564425 -14.830588 11.906835 2.752808 8.828272 -2.361497 -23.209263 -4.738220 4.585061 10.688221 -1.550980 4.252540 3.244679 -0.728620 -1.183280 -0.830850 18.646581 -11.885416 2.794106 -2.180495 1.690719 -15.086309 5.835836 -5.213857 14.026328 0.538289 -4.001941 3.130218 -0.070930 1.486840 0.068000 -5.286740 2.283745 -7.104937 13.414576 5.192442 4.517419 -6.249507 5.179057 14.206907 5.235406 4.301521 -9.203250 10.226299 0.168432 45.188528 4.876370 -3.396890 10.635690 -5.577121 -18.128929 4.139946 -61.023845 -34.300015 13.892873 -1.958552 -26.554473 -1.794024 -4.811326 2.629702 0.262050 0.864950 -1.029330 -0.029410 -3.214379 17.078981 5.266384 74.350139 42.709937 23.793943 2.756667 15.713633 -0.229560 1.818622 -1.266277 -1.068950 0.736560 1.086160 -0.122040 
-0.367630 17.644910 -1.813430 -5.134058 29.020335 4.404922 -14.876018 11.875101 2.797341 8.201442 -2.557609 -24.305300 -4.124491 4.406456 10.808069 -1.598243 4.123680 3.280233 -0.710490 -1.160350 -0.795970 18.607572 -11.830631 2.819927 -2.427034 1.767165 -15.527461 6.541295 -5.238641 13.260731 0.528941 -3.930349 3.153078 -0.060310 1.447960 0.055790 -5.152437 2.233856 -7.109247 12.226409 5.601556 4.515178 -4.094150 5.381123 13.635647 4.564417 5.199926 -9.416649 11.525045 -1.667134 43.572053 4.480030 -4.097870 9.227380 -5.444908 -18.352535 4.379142 -61.759155 -33.943701 13.554121 -6.115707 -30.410743 -0.749565 -4.762897 2.639809 0.302660 0.841320 -0.998540 -0.043600 -1.995118 16.800735 5.132566 72.226335 39.594603 20.670774 0.204924 14.886930 -0.695831 1.806482 -1.206494 -1.075070 0.753120 1.077080 -0.143910 
-0.353510 17.639030 -1.814770 -4.995979 29.726718 5.416023 -14.923300 11.847893 2.867449 7.601635 -2.796782 -25.487865 -3.735878 4.272011 10.870667 -1.610410 3.995477 3.316269 -0.684240 -1.120930 -0.758630 18.567306 -11.741880 2.838362 -2.818021 1.884401 -16.160597 7.327132 -5.258934 12.554767 0.511481 -3.846931 3.176269 -0.054940 1.400440 0.049100 -5.000027 2.104528 -7.118895 11.037118 5.863508 4.468144 -2.199079 5.471684 12.929463 3.799638 5.897156 -9.603501 12.274044 -3.310560 41.805129 4.110940 -4.833400 7.816980 -5.491688 -18.315948 4.569265 -61.995932 -33.134896 12.884977 -10.770332 -34.286243 0.722758 -4.710152 2.670475 0.330970 0.810470 -0.956560 -0.051110 -0.512575 16.298237 5.004757 70.060023 36.262799 17.291521 -1.860339 14.914001 -1.127222 1.802439 -1.159857 -1.058430 0.758490 1.054540 -0.154080 
-0.336690 17.627160 -1.814620 -4.682424 30.261139 6.522217 -14.973369 11.831887 2.948301 6.943263 -3.058087 -26.564021 -3.548223 4.181058 10.933134 -1.606701 3.869976 3.356784 -0.639900 -1.053070 -0.715760 18.523294 -11.640828 2.845341 -3.389724 1.979572 -16.780436 8.052734 -5.263832 11.900641 0.483025 -3.766318 3.204040 -0.041320 1.346830 0.039250 -4.826343 1.925475 -7.122642 9.720596 6.036173 4.409541 -0.456668 5.497760 12.240148 3.021728 6.347260 -9.736631 12.494553 -4.805439 40.055490 3.696310 -5.606250 6.209860 -5.237526 -17.828954 4.659715 -62.270461 -32.062496 12.167411 -15.961007 -38.059488 2.666771 -4.647554 2.714636 0.356370 0.774320 -0.906230 -0.046530 0.675034 15.484671 4.891302 68.172776 32.994920 14.011346 -3.439378 15.681797 -1.533451 1.791405 -1.125933 -1.030670 0.766540 1.014430 -0.157870 
-0.315980 17.624920 -1.816180 -4.322375 30.646868 7.455100 -15.024352 11.845803 3.023959 6.258014 -3.299304 -27.347297 -3.382029 4.090606 10.886612 -1.593385 3.754935 3.394618 -0.612710 -1.012660 -0.678320 18.473904 -11.539464 2.847250 -4.037746 2.038500 -17.241177 8.654647 -5.266757 11.346899 0.458885 -3.694499 3.228282 -0.043880 1.293940 0.029240 -4.646315 1.694236 -7.133093 8.453817 6.100653 4.511472 1.303519 5.442849 11.683158 2.230358 6.567021 -9.913362 12.339619 -6.116733 38.856437 3.344830 -6.372160 4.961910 -5.210887 -17.432918 4.820994 -62.361761 -30.597634 11.151588 -21.445090 -41.591768 4.996159 -4.589727 2.757921 0.382850 0.735410 -0.858690 -0.046980 2.123884 14.922760 4.857584 65.667543 29.712700 10.705255 -4.846592 16.180506 -1.815253 1.795065 -1.083566 -1.006670 0.768690 0.981880 -0.162760 
-0.291700 17.625150 -1.819700 -3.829240 30.753644 8.482376 -15.077234 11.853948 3.107341 5.584603 -3.559036 -28.045112 -3.525357 4.059132 10.748613 -1.557106 3.658707 3.432578 -0.592710 -0.972510 -0.658120 18.424197 -11.426996 2.840003 -4.837221 2.105101 -17.794789 9.221087 -5.260870 10.867425 0.449525 -3.644206 3.256700 -0.048860 1.256290 0.019730 -4.450199 1.450834 -7.131887 7.043582 6.168514 4.539682 3.014574 5.381793 11.121707 1.539512 6.605841 -9.944573 11.891663 -7.053354 37.476362 2.813640 -6.896330 4.317500 -5.463961 -16.739696 4.888209 -62.375541 -28.900290 10.236286 -27.381237 -44.351721 7.797590 -4.551661 2.813440 0.378670 0.715760 -0.830620 -0.041690 3.679084 14.231462 4.729717 63.035153 26.717666 7.991195 -5.730983 16.187697 -1.933971 1.809304 -1.062785 -0.974620 0.759970 0.946640 -0.157280 
-0.261400 17.623390 -1.822510 -3.366196 30.808708 9.537566 -15.127560 11.864798 3.186209 4.916808 -3.820520 -28.639573 -3.715269 4.019022 10.426451 -1.524385 3.567795 3.471107 -0.590950 -0.948640 -0.655460 18.380610 -11.300092 2.827888 -5.625081 2.168658 -18.358134 9.745325 -5.244893 10.435824 0.457328 -3.610149 3.280954 -0.053320 1.230150 0.001250 -4.265979 1.177304 -7.120842 5.766340 6.125358 4.427720 4.704391 5.190880 10.545447 0.865021 6.469855 -9.830451 11.151979 -7.636794 35.802022 2.094800 -7.160500 4.127680 -5.872884 -15.748298 4.852172 -62.387106 -27.033050 9.498806 -33.805361 -46.192697 10.975566 -4.531902 2.871904 0.356350 0.708860 -0.824640 -0.041180 5.356188 13.307665 4.518827 60.334504 23.784829 5.494684 -6.310239 16.414403 -2.020624 1.822624 -1.050747 -0.953560 0.749010 0.922080 -0.152060 
